<mxfile host="app.diagrams.net" modified="2023-08-18T11:36:38.248Z" agent="Mozilla/5.0 (Windows NT 10.0; Win64; x64) AppleWebKit/537.36 (KHTML, like Gecko) Chrome/116.0.0.0 Safari/537.36" version="21.5.2" etag="a3ypUb-htC7HqL54XowI" type="github">
  <diagram name="Page-1" id="-Pf4kjK27Etjo41sfC_-">
    <mxGraphModel>
      <root>
        <mxCell id="0" />
        <mxCell id="1" parent="0" />
      </root>
    </mxGraphModel>
  </diagram>
</mxfile>
